<?xml version="1.0" encoding="utf-8"?>
<!-- Generator: Adobe Illustrator 26.0.3, SVG Export Plug-In . SVG Version: 6.00 Build 0)  -->
<svg version="1.0" id="katman_1" xmlns="http://www.w3.org/2000/svg" xmlns:xlink="http://www.w3.org/1999/xlink" x="0px" y="0px"
	 viewBox="0 0 600 450" style="enable-background:new 0 0 600 450;" xml:space="preserve">
<style type="text/css">
	.st0{fill:#18162F;}
	.st1{fill:#FFFFFF;}
</style>
<path class="st0" d="M115.2,128.6H485c22.9,0,41.4,18.5,41.4,41.4l0,0c0,22.9-18.5,41.4-41.4,41.4H115.2
	c-22.9,0-41.4-18.5-41.4-41.4l0,0C73.8,147.1,92.4,128.6,115.2,128.6z"/>
<path class="st1" d="M262.5,166.5h-4.8v18.9h-3.4v-18.9h-3.7v-2.7h3.7v-2.1c-0.1-1.8,0.5-3.6,1.7-5c1.2-1.2,2.9-1.8,4.7-1.7
	c0.7,0,1.4,0.1,2.1,0.3v3.1c-0.6-0.2-1.3-0.3-2-0.4c-0.8,0-1.7,0.3-2.2,0.9c-0.6,0.8-1,1.9-0.9,2.9v2h4.8L262.5,166.5z"/>
<path class="st1" d="M285.5,174.7c0.1,2.9-0.9,5.7-2.7,8c-1.9,2.1-4.7,3.3-7.5,3.2c-2.8,0.1-5.5-1-7.4-3.1c-1.8-2.2-2.8-5-2.7-7.9
	c-0.1-2.9,0.9-5.8,2.8-8c1.8-2.1,4.5-3.4,7.3-3.3c2.9-0.2,5.7,1,7.6,3.2C284.7,168.9,285.6,171.7,285.5,174.7z M268.7,174.7
	c-0.1,2.1,0.6,4.1,1.8,5.8c1.1,1.5,2.9,2.4,4.8,2.4c1.9,0.1,3.8-0.8,5-2.3c1.2-1.7,1.8-3.7,1.7-5.8c0.1-2.1-0.5-4.2-1.7-5.9
	c-1.2-1.6-3.1-2.5-5.1-2.3c-1.9-0.1-3.7,0.8-4.8,2.4C269.3,170.6,268.6,172.6,268.7,174.7L268.7,174.7z"/>
<path class="st1" d="M293.8,185.4h-3.4v-21.6h3.3v3.8c0.9-2.5,3.2-4.1,5.9-4c0.4,0,0.8,0,1.2,0v3.3c-0.6-0.2-1.2-0.3-1.8-0.3
	c-1.5,0-2.9,0.8-3.7,2.1c-1,1.4-1.5,3.1-1.5,4.8L293.8,185.4z"/>
<path class="st1" d="M326.4,182.8c-1.3,2-3.7,3-6.1,2.8c-1.8,0.1-3.6-0.6-4.9-1.8c-1.2-1.2-1.9-2.8-1.9-4.5
	c-0.1-1.9,0.8-3.7,2.4-4.8c1.9-1.2,4.2-1.9,6.5-1.7h3.9v-1.1c0.1-1.4-0.3-2.8-1.2-3.8c-1-1-2.5-1.5-3.9-1.3c-2.2,0-4.3,0.6-6.1,1.8
	v-3.4c1.9-1.1,4.1-1.6,6.3-1.5c5.4,0,8.1,2.8,8.1,8.3v13.7h-3.3L326.4,182.8z M321.3,182.8c1.3,0.1,2.7-0.4,3.7-1.3
	c0.9-0.8,1.4-2.1,1.4-3.3v-2.8h-3.7c-1.5-0.1-3,0.2-4.2,1.1c-0.9,0.6-1.4,1.6-1.4,2.7c0,1,0.4,1.9,1.1,2.6
	C319,182.5,320.2,182.9,321.3,182.8L321.3,182.8z"/>
<path class="st1" d="M352.8,185.4h-3.4v-14c0.1-1.3-0.3-2.6-1.2-3.6c-0.8-0.9-2-1.3-3.2-1.3c-1.6,0-3.1,0.7-4.2,1.9
	c-1.2,1.4-1.9,3.3-1.8,5.2v11.8h-3.3v-21.6h3.3v3.8c1.1-2.7,3.9-4.4,6.8-4.2c1.9-0.1,3.7,0.6,5,1.9c1.3,1.4,2,3.2,1.9,5.1V185.4z"/>
<path class="st1" d="M376.7,185.4h-3.4v-3.2c-1.4,2.3-4,3.6-6.7,3.5c-2.6,0.1-5.2-1.1-6.8-3.2c-1.7-2.2-2.5-5-2.4-7.8
	c-0.1-3,0.8-5.9,2.6-8.2c1.6-2,4.1-3.2,6.7-3.2c2.7-0.1,5.2,1.3,6.6,3.6v-11.8h3.4V185.4z M361,174.9c-0.1,2,0.5,4,1.7,5.7
	c1,1.4,2.6,2.1,4.3,2.1c1.7,0,3.3-0.7,4.5-2c1.4-1.8,2.1-4,1.9-6.3c0.2-2.2-0.5-4.3-1.9-6c-1.1-1.2-2.6-1.9-4.2-1.9
	c-1.7,0-3.4,0.7-4.5,2.1C361.4,170.4,360.8,172.6,361,174.9L361,174.9z"/>
<path class="st1" d="M386.2,185.4h-3.4v-21.6h3.4v3.8c0.9-2.5,3.2-4.1,5.9-4c0.4,0,0.8,0,1.2,0v3.3c-0.6-0.2-1.2-0.3-1.8-0.3
	c-1.5,0-2.9,0.8-3.7,2.1c-1,1.4-1.5,3.1-1.5,4.8V185.4z"/>
<path class="st1" d="M415.8,174.7c0.1,2.9-0.9,5.7-2.7,8c-1.9,2.1-4.7,3.3-7.5,3.2c-2.8,0.1-5.5-1-7.4-3.1c-1.8-2.2-2.8-5-2.7-7.9
	c-0.1-2.9,0.9-5.8,2.8-8c1.8-2.1,4.5-3.4,7.3-3.3c2.9-0.2,5.7,1,7.6,3.2C415,168.9,416,171.7,415.8,174.7z M399,174.7
	c-0.1,2.1,0.6,4.1,1.8,5.7c1.1,1.5,2.9,2.4,4.8,2.4c1.9,0.1,3.8-0.8,5-2.3c1.2-1.7,1.8-3.7,1.7-5.8c0.1-2.1-0.5-4.2-1.7-5.9
	c-1.2-1.6-3.1-2.4-5.1-2.3c-1.9-0.1-3.7,0.8-4.8,2.4C399.5,170.5,398.9,172.6,399,174.7L399,174.7z"/>
<path class="st1" d="M424.2,155.4c0.4,0.4,0.7,1,0.6,1.6c0,0.6-0.2,1.1-0.6,1.6c-0.4,0.4-1,0.6-1.6,0.6c-0.6,0-1.1-0.2-1.6-0.6
	c-0.4-0.4-0.6-1-0.6-1.6c0-0.6,0.2-1.2,0.6-1.6c0.4-0.4,1-0.7,1.6-0.7C423.2,154.8,423.8,155,424.2,155.4z M424.3,185.4H421v-21.6
	h3.4V185.4z"/>
<path class="st1" d="M448.7,185.4h-3.4v-3.2c-1.4,2.3-4,3.6-6.6,3.5c-2.6,0.1-5.2-1.1-6.8-3.2c-1.7-2.2-2.5-5-2.4-7.8
	c-0.1-3,0.8-5.9,2.6-8.2c1.6-2,4.1-3.2,6.8-3.2c2.7-0.1,5.2,1.3,6.6,3.6v-11.8h3.4L448.7,185.4z M432.9,174.9c-0.1,2,0.5,4,1.7,5.7
	c1,1.4,2.6,2.1,4.3,2.1c1.7,0,3.4-0.7,4.5-2c1.4-1.8,2.1-4,1.9-6.3c0.2-2.2-0.5-4.3-1.9-6c-1.1-1.2-2.6-1.9-4.2-1.9
	c-1.7,0-3.4,0.7-4.5,2.1C433.4,170.4,432.8,172.6,432.9,174.9L432.9,174.9z"/>
<path class="st1" d="M209.3,156.4l-1.7-0.7c-5.8-2.2-12-3.2-18.2-3.1c-6.2-0.1-12.4,0.9-18.3,3.1l-1.7,0.7c-20.3,9-21,31.1-21,31.1
	h82C230.4,187.3,229.5,165.5,209.3,156.4z M171.5,174.4c-2.7,0-4.9-2.2-4.9-4.9s2.2-4.9,4.9-4.9s4.9,2.2,4.9,4.9
	C176.4,172.2,174.2,174.4,171.5,174.4C171.5,174.4,171.5,174.4,171.5,174.4L171.5,174.4z M207.4,174.4c-2.7,0-4.9-2.2-4.9-4.9
	c0-2.7,2.2-4.9,4.9-4.9c2.7,0,4.9,2.2,4.9,4.9c0,0,0,0,0,0C212.3,172.2,210.1,174.4,207.4,174.4
	C207.4,174.4,207.4,174.4,207.4,174.4L207.4,174.4z"/>
<path class="st1" d="M170.1,157.1c0.1,0.2,0.6,0.1,1-0.1l0,0c0.4-0.3,0.6-0.7,0.5-0.9l-7.7-10.7c-0.1-0.2-0.6-0.1-1,0.1l0,0
	c-0.4,0.3-0.6,0.7-0.5,0.9L170.1,157.1z"/>
<path class="st1" d="M208.7,157.1c-0.1,0.2-0.6,0.1-1-0.1l0,0c-0.4-0.3-0.6-0.7-0.5-0.9l7.7-10.8c0.1-0.2,0.6-0.1,1,0.1l0,0
	c0.4,0.3,0.6,0.7,0.5,0.9L208.7,157.1z"/>
<path class="st0" d="M114.5,234.4h371.2c20.5,0,37.1,16.6,37.1,37.1v7.3c0,20.5-16.6,37.1-37.1,37.1H114.5
	c-20.5,0-37.1-16.6-37.1-37.1v-7.3C77.5,251,94,234.4,114.5,234.4z"/>
<path class="st1" d="M227.9,258.8c-2.7,0-6.9-3.1-11.3-3c-5.9,0.2-11.2,3.4-14.1,8.6c-6,10.5-1.6,25.8,4.3,34.3
	c2.9,4.2,6.3,8.8,10.7,8.6c4.4-0.1,6-2.8,11.2-2.8s6.7,2.8,11.3,2.7s7.6-4.2,10.5-8.4c2-3,3.6-6.2,4.7-9.7
	c-5.5-2.3-9.1-7.8-9.2-13.8c0.1-5.3,2.8-10.2,7.4-12.9c-2.9-4.1-7.5-6.6-12.5-6.8C235.4,255.2,230.5,258.8,227.9,258.8L227.9,258.8z
	 M237.5,250c2.6-3,3.9-6.9,3.6-10.9c-3.9,0.4-7.4,2.2-10,5.2c-2.6,2.9-3.9,6.7-3.6,10.5C231.3,254.9,235,253.1,237.5,250z"/>
<path class="st1" d="M291,276.2h-4.7v18.6h-3.2v-18.6h-3.7v-2.7h3.7v-2c-0.1-1.8,0.5-3.5,1.6-4.9c1.2-1.2,2.9-1.9,4.6-1.8
	c0.7,0,1.4,0.1,2.1,0.3v3c-0.6-0.2-1.3-0.3-1.9-0.3c-0.8,0-1.6,0.3-2.1,0.9c-0.6,0.8-0.9,1.8-0.9,2.8v1.9h4.7L291,276.2z"/>
<path class="st1" d="M313.7,284.3c0.1,2.9-0.8,5.6-2.7,7.8c-1.9,2.1-4.6,3.2-7.4,3.1c-2.8,0.1-5.4-1-7.2-3.1
	c-1.8-2.2-2.8-4.9-2.7-7.8c-0.1-2.9,0.9-5.7,2.8-7.9c1.8-2.1,4.4-3.3,7.2-3.2c2.8-0.2,5.6,1,7.4,3.1
	C312.9,278.6,313.8,281.4,313.7,284.3z M297.2,284.3c-0.1,2,0.6,4,1.7,5.6c1.1,1.5,2.9,2.4,4.7,2.3c1.9,0.1,3.7-0.8,4.9-2.3
	c1.2-1.6,1.8-3.6,1.7-5.7c0.1-2.1-0.5-4.1-1.6-5.8c-1.2-1.6-3-2.4-5-2.3c-1.9-0.1-3.7,0.8-4.8,2.4
	C297.7,280.2,297.1,282.2,297.2,284.3L297.2,284.3z"/>
<path class="st1" d="M321.9,294.8h-3.3v-21.3h3.3v3.7c0.8-2.5,3.2-4.1,5.8-4c0.4,0,0.8,0,1.2,0v3.3c-0.6-0.2-1.2-0.3-1.8-0.3
	c-1.5,0-2.9,0.8-3.7,2.1c-1,1.4-1.5,3-1.5,4.7L321.9,294.8z"/>
<path class="st1" d="M345.8,265.3c0.4,0.4,0.6,1,0.6,1.6c0,0.6-0.2,1.1-0.6,1.5c-0.4,0.4-1,0.6-1.6,0.6c-0.6,0-1.1-0.2-1.5-0.6
	c-0.4-0.4-0.6-1-0.6-1.5c0-0.6,0.2-1.1,0.6-1.6c0.4-0.4,0.9-0.6,1.5-0.6C344.9,264.7,345.4,264.9,345.8,265.3z M346,294.8h-3.3
	v-21.2h3.3V294.8z"/>
<path class="st1" d="M376.6,280.6c0.2,3.8-1,7.6-3.4,10.6c-4.9,5.1-12.9,5.3-18.1,0.4c-0.1-0.1-0.3-0.3-0.4-0.4
	c-2.4-3-3.7-6.8-3.5-10.6c-0.2-3.8,1-7.5,3.4-10.5c5-5.1,13.1-5.3,18.3-0.3c0.1,0.1,0.2,0.2,0.3,0.3
	C375.6,273,376.8,276.8,376.6,280.6z M354.8,280.6c-0.2,3,0.7,5.9,2.5,8.3c1.6,2,4.1,3.2,6.6,3.1c2.6,0.1,5.1-1,6.7-3
	c1.7-2.5,2.6-5.4,2.4-8.4c0.2-3-0.7-6-2.4-8.4c-3.3-3.7-8.9-4-12.6-0.8c-0.3,0.2-0.5,0.5-0.8,0.8
	C355.4,274.5,354.6,277.5,354.8,280.6z"/>
<path class="st1" d="M398.2,287.3c0.1,2.2-0.8,4.4-2.5,5.8c-1.9,1.4-4.2,2.2-6.6,2.1c-2.6,0.1-5.2-0.5-7.6-1.8v-3.8
	c2.2,1.6,4.8,2.4,7.5,2.3c1.5,0.1,3-0.3,4.2-1.2c1-0.8,1.6-2.1,1.5-3.4c0-0.6-0.1-1.1-0.4-1.7c-0.3-0.5-0.7-1-1.2-1.3
	c-0.5-0.4-1-0.7-1.6-1c-0.5-0.3-1.2-0.6-2-1l-0.8-0.3c-1.2-0.5-2.1-1-2.7-1.3c-0.8-0.4-1.5-0.9-2.2-1.5c-0.8-0.6-1.4-1.4-1.9-2.2
	c-0.4-1-0.6-2-0.6-3c-0.1-2.2,0.9-4.3,2.6-5.6c1.9-1.4,4.1-2.2,6.5-2.1c2.1-0.1,4.3,0.4,6.2,1.3v3.6c-1.8-1.1-4-1.7-6.1-1.7
	c-1.5-0.1-2.9,0.3-4.1,1.2c-1,0.7-1.5,1.9-1.5,3.1c0,0.6,0.1,1.2,0.4,1.8c0.3,0.6,0.8,1.1,1.4,1.5c0.5,0.4,1.1,0.7,1.7,1.1l2.2,1
	l2.1,1c0.5,0.3,1.2,0.6,2,1.1c0.7,0.4,1.3,0.9,1.8,1.5c0.5,0.6,0.8,1.2,1.1,1.9C398,285.5,398.2,286.4,398.2,287.3z"/>
</svg>
